<?xml version="1.0" encoding="UTF-8" standalone="no"?>
<svg width="24px" height="24px" viewBox="0 0 24 24" version="1.1" xmlns="http://www.w3.org/2000/svg" xmlns:xlink="http://www.w3.org/1999/xlink" xmlns:sketch="http://www.bohemiancoding.com/sketch/ns">
    <!-- Generator: Sketch 3.1.1 (8761) - http://www.bohemiancoding.com/sketch -->
    <title>add-icon</title>
    <desc>Created with Sketch.</desc>
    <defs></defs>
    <g id="Page-1" stroke="none" stroke-width="1" fill="none" fill-rule="evenodd" sketch:type="MSPage">
        <g id="Menus---V2---Slim-copy-5" sketch:type="MSArtboardGroup" transform="translate(-240.000000, -656.000000)" fill="#19222A">
            <path d="M257.683102,667.008057 C258.201801,667.008565 258.629925,667.434567 258.630439,667.95955 C258.630956,668.488194 258.20765,668.909702 257.684964,668.90919 L252.927968,668.904531 L252.932628,673.661527 C252.933136,674.180226 252.507971,674.607516 251.982988,674.607001 C251.454344,674.606484 251.032006,674.18235 251.031494,673.659665 L251.026835,668.902669 L246.269839,668.89801 C245.75114,668.897502 245.323017,668.4715 245.322502,667.946516 C245.321985,667.417872 245.745292,666.996364 246.267977,666.996876 L251.024973,667.001535 L251.020314,662.24454 C251.019806,661.725841 251.44497,661.298551 251.969953,661.299065 C252.498597,661.299583 252.920935,661.723716 252.921447,662.246402 L252.926106,667.003397 L257.683102,667.008057 Z M260.445114,676.405104 C265.122217,671.737154 265.122217,664.168913 260.445114,659.500963 C255.768011,654.833012 248.18493,654.833012 243.507827,659.500963 C238.830724,664.168913 238.830724,671.737154 243.507827,676.405104 C248.18493,681.073054 255.768011,681.073054 260.445114,676.405104 Z M259.033673,674.996426 C262.931259,671.106467 262.931259,664.799599 259.033673,660.909641 C255.136088,657.019683 248.816853,657.019683 244.919268,660.909641 C241.021682,664.799599 241.021682,671.106467 244.919268,674.996426 C248.816853,678.886384 255.136088,678.886384 259.033673,674.996426 Z" id="add-icon" sketch:type="MSShapeGroup"></path>
        </g>
    </g>
</svg>