<?xml version="1.0" encoding="UTF-8" standalone="no"?>
<svg width="17px" height="12px" viewBox="0 0 17 12" version="1.1" xmlns="http://www.w3.org/2000/svg" xmlns:xlink="http://www.w3.org/1999/xlink" xmlns:sketch="http://www.bohemiancoding.com/sketch/ns">
    <!-- Generator: Sketch 3.1.1 (8761) - http://www.bohemiancoding.com/sketch -->
    <title>check-mark</title>
    <desc>Created with Sketch.</desc>
    <defs></defs>
    <g id="Page-1" stroke="none" stroke-width="1" fill="none" fill-rule="evenodd" sketch:type="MSPage">
        <g id="Icons" sketch:type="MSArtboardGroup" transform="translate(-433.000000, -400.000000)">
            <g id="check-mark" sketch:type="MSLayerGroup" transform="translate(433.000000, 400.000000)">
                <path d="M5.45498885,11.8107234 C5.85364521,12.1216709 6.42167587,12.0861481 6.77848649,11.7279563 L15.7659132,2.70573951 C16.1556824,2.31446156 16.1544593,1.68129776 15.7631814,1.29152859 C15.3719034,0.90175942 14.7387396,0.902982531 14.3489704,1.29426049 L6.00634935,9.70433813 L1.67246806,6.32395999 C1.23698786,5.98429038 0.60860479,6.06196022 0.268935185,6.49744041 C-0.070734421,6.93292061 0.00693541119,7.56130369 0.44241561,7.90097329 L5.45498885,11.8107234 Z" id="check-mark-2" fill-opacity="0.25" fill="#000000" sketch:type="MSShapeGroup"></path>
                <path d="M5.39754702,10.8107234 C5.79620337,11.1216709 6.36423404,11.0861481 6.72104465,10.7279563 L15.7084714,1.70573951 C16.0982406,1.31446156 16.0970175,0.681297762 15.7057395,0.291528591 C15.3144616,-0.0982405805 14.6812978,-0.0970174695 14.2915286,0.294260486 L5.94890751,8.70433813 L1.61502623,5.32395999 C1.17954603,4.98429038 0.551162953,5.06196022 0.211493348,5.49744041 C-0.128176258,5.93292061 -0.0505064257,6.56130369 0.384973773,6.90097329 L5.39754702,10.8107234 Z" fill="#FFFFFF" sketch:type="MSShapeGroup"></path>
            </g>
        </g>
    </g>
</svg>