<?xml version="1.0" encoding="UTF-8" standalone="no"?>
<svg width="24px" height="24px" viewBox="0 0 24 24" version="1.1" xmlns="http://www.w3.org/2000/svg" xmlns:xlink="http://www.w3.org/1999/xlink" xmlns:sketch="http://www.bohemiancoding.com/sketch/ns">
    <!-- Generator: Sketch 3.1.1 (8761) - http://www.bohemiancoding.com/sketch -->
    <title>delete-icon</title>
    <desc>Created with Sketch.</desc>
    <defs></defs>
    <g id="Page-1" stroke="none" stroke-width="1" fill="none" fill-rule="evenodd" sketch:type="MSPage">
        <g id="Icons" sketch:type="MSArtboardGroup" transform="translate(-202.000000, -375.000000)" fill="#A1AAB3">
            <path d="M217.373613,382.278122 C217.74147,381.910266 218.346614,381.90876 218.718927,382.281073 C219.093836,382.655982 219.092561,383.255703 218.721878,383.626387 L216.055485,386.29278 C215.664898,386.683367 215.659599,387.311334 216.055485,387.70722 L218.721878,390.373613 C219.089734,390.74147 219.09124,391.346614 218.718927,391.718927 C218.344018,392.093836 217.744297,392.092561 217.373613,391.721878 L214.70722,389.055485 C214.316633,388.664898 213.688666,388.659599 213.29278,389.055485 L210.626387,391.721878 C210.25853,392.089734 209.653386,392.09124 209.281073,391.718927 C208.906164,391.344018 208.907439,390.744297 209.278122,390.373613 L211.944515,387.70722 C212.335102,387.316633 212.340401,386.688666 211.944515,386.29278 L209.278122,383.626387 C208.910266,383.25853 208.90876,382.653386 209.281073,382.281073 C209.655982,381.906164 210.255703,381.907439 210.626387,382.278122 L213.29278,384.944515 C213.683367,385.335102 214.311334,385.340401 214.70722,384.944515 L217.373613,382.278122 Z M222.485282,395.485282 C227.171573,390.79899 227.171573,383.201011 222.485282,378.514719 C217.79899,373.828427 210.201011,373.828427 205.514719,378.514719 C200.828427,383.201011 200.828427,390.79899 205.514719,395.485282 C210.201011,400.171573 217.79899,400.171573 222.485282,395.485282 Z M221.071068,394.071068 C224.976311,390.165825 224.976311,383.834175 221.071068,379.928932 C217.165825,376.023689 210.834175,376.023689 206.928932,379.928932 C203.023689,383.834175 203.023689,390.165825 206.928932,394.071068 C210.834175,397.976311 217.165825,397.976311 221.071068,394.071068 Z" id="delete-icon" sketch:type="MSShapeGroup"></path>
        </g>
    </g>
</svg>