<?xml version="1.0" encoding="UTF-8" standalone="no"?>
<svg width="24px" height="24px" viewBox="0 0 24 24" version="1.1" xmlns="http://www.w3.org/2000/svg" xmlns:xlink="http://www.w3.org/1999/xlink" xmlns:sketch="http://www.bohemiancoding.com/sketch/ns">
    <!-- Generator: Sketch 3.1.1 (8761) - http://www.bohemiancoding.com/sketch -->
    <title>reorder-icon</title>
    <desc>Created with Sketch.</desc>
    <defs></defs>
    <g id="Page-1" stroke="none" stroke-width="1" fill="none" fill-rule="evenodd" sketch:type="MSPage">
        <g id="Icons" sketch:type="MSArtboardGroup" transform="translate(-236.000000, -375.000000)" fill="#A1AAB3">
            <path d="M247,383 L247,384.990631 C247,385.54809 247.443865,386 248,386 C248.552285,386 249,385.556647 249,384.990631 L249,383 L250.009222,383 C250.549025,383 250.731423,382.641897 250.400116,382.200154 L248.599884,379.799846 C248.26623,379.354973 247.731423,379.358103 247.400116,379.799846 L245.599884,382.200154 C245.26623,382.645027 245.443586,383 245.990778,383 L247,383 Z M248.998628,390.467364 L248.998628,388.476733 C248.998628,387.919274 248.554763,387.467364 247.998628,387.467364 C247.446343,387.467364 246.998628,387.910717 246.998628,388.476733 L246.998628,390.467364 L245.989406,390.467364 C245.449603,390.467364 245.267205,390.825467 245.598512,391.26721 L247.398743,393.667518 C247.732398,394.112391 248.267205,394.109261 248.598512,393.667518 L250.398743,391.26721 C250.732398,390.822337 250.555041,390.467364 250.00785,390.467364 L248.998628,390.467364 L248.998628,390.467364 Z M256.485282,395.485282 C261.171573,390.79899 261.171573,383.201011 256.485282,378.514719 C251.79899,373.828427 244.201011,373.828427 239.514719,378.514719 C234.828427,383.201011 234.828427,390.79899 239.514719,395.485282 C244.201011,400.171573 251.79899,400.171573 256.485282,395.485282 Z M255.071068,394.071068 C258.976311,390.165825 258.976311,383.834175 255.071068,379.928932 C251.165825,376.023689 244.834175,376.023689 240.928932,379.928932 C237.023689,383.834175 237.023689,390.165825 240.928932,394.071068 C244.834175,397.976311 251.165825,397.976311 255.071068,394.071068 Z" id="reorder-icon" sketch:type="MSShapeGroup"></path>
        </g>
    </g>
</svg>